<svg xmlns="http://www.w3.org/2000/svg" version="1.1" xmlns:xlink="http://www.w3.org/1999/xlink" xmlns:svgjs="http://svgjs.dev/svgjs" width="2000" height="1247" viewBox="0 0 2000 1247"><g transform="matrix(1,0,0,1,-1.2121212121212466,0.504858299595071)"><svg viewBox="0 0 396 247" data-background-color="#ffffff" preserveAspectRatio="xMidYMid meet" height="1247" width="2000" xmlns="http://www.w3.org/2000/svg" xmlns:xlink="http://www.w3.org/1999/xlink"><g id="tight-bounds" transform="matrix(1,0,0,1,0.2400000000000091,-0.09999999999999432)"><svg viewBox="0 0 395.52 247.2" height="247.2" width="395.52"><g><svg></svg></g><g><svg viewBox="0 0 395.52 247.2" height="247.2" width="395.52"><g transform="matrix(1,0,0,1,75.54432,77.11543074484945)"><svg viewBox="0 0 244.43135999999998 92.9691385103011" height="92.9691385103011" width="244.43135999999998"><g><svg viewBox="0 0 244.43135999999998 92.9691385103011" height="92.9691385103011" width="244.43135999999998"><g><svg viewBox="0 0 244.43135999999998 92.9691385103011" height="92.9691385103011" width="244.43135999999998"><g><svg viewBox="0 0 244.43135999999998 92.9691385103011" height="92.9691385103011" width="244.43135999999998"><g id="textblocktransform"><svg viewBox="0 0 244.43135999999998 92.9691385103011" height="92.9691385103011" width="244.43135999999998" id="textblock"><g><svg viewBox="0 0 244.43135999999998 92.9691385103011" height="92.9691385103011" width="244.43135999999998"><g transform="matrix(1,0,0,1,0,0)"><svg width="244.43135999999998" viewBox="3.25 -35.5 94.64 36" height="92.9691385103011" data-palette-color="#1ebbd7"><path d="M7.95 0L3.25 0 3.25-22.75Q3.25-28.8 6.23-32.15 9.2-35.5 14.7-35.5L14.7-35.5Q20.25-35.5 23.23-32.8 26.2-30.1 26.2-25.2L26.2-25.2Q26.2-22.05 24.7-20.05 23.2-18.05 19.6-16.9L19.6-16.9 19.6-16.7Q23.35-15.25 24.63-12.58 25.9-9.9 25.9-3.75L25.9-3.75 25.9 0 21.2 0 21.2-6.4Q21.2-10.2 19.05-12.33 16.9-14.45 12.85-14.45L12.85-14.45 10.15-14.45 10.15-18.85 13-18.85Q17.8-18.85 19.65-20.8 21.5-22.75 21.5-25.45L21.5-25.45Q21.5-28 19.68-29.55 17.85-31.1 14.85-31.1L14.85-31.1Q11.4-31.1 9.68-29.15 7.95-27.2 7.95-22.75L7.95-22.75 7.95 0ZM43.45-24.5L43.45-24.5Q51.95-24.15 51.95-17.45L51.95-17.45Q51.95-9.1 41-9.1L41-9.1 38.95-9.1 38.95-12.95 41.35-12.95Q44.7-12.95 46-13.98 47.3-15 47.3-17.4L47.3-17.4Q47.3-18.95 46.15-19.73 45-20.5 43.2-20.5L43.2-20.5Q39.65-20.5 37.62-18 35.6-15.5 35.6-12L35.6-12Q35.6-8.3 37.77-6 39.95-3.7 43.45-3.7L43.45-3.7Q46.6-3.7 48.6-5.25L48.6-5.25 51.6-2.3Q48.15 0.5 43.45 0.5L43.45 0.5Q37.75 0.5 34.35-2.85 30.95-6.2 30.95-11.5L30.95-11.5Q30.95-17.4 34.3-21.05 37.65-24.7 43.45-24.5ZM73.5 0L55.7 0 55.7-2Q55.7-4.4 56.77-6.58 57.85-8.75 59.47-10.4 61.1-12.05 62.77-13.5 64.45-14.95 65.97-16.55 67.5-18.15 68.05-19.6L68.05-19.6 55.75-19.6 55.75-24 73.15-24 73.15-21.55Q73.15-19.35 72.07-17.35 71-15.35 69.35-13.75 67.7-12.15 65.97-10.7 64.25-9.25 62.67-7.6 61.1-5.95 60.45-4.4L60.45-4.4 73.5-4.4 73.5 0ZM91.59-14.1L91.59-14.1 91.59-9.6Q89.69-11.05 86.94-11.05L86.94-11.05Q84.59-11.05 83.29-10.13 81.99-9.2 81.99-7.5L81.99-7.5Q81.99-4.2 86.89-4.2L86.89-4.2 93.49-4.2 93.49-13.75Q93.49-19.8 87.59-19.8L87.59-19.8 79.59-19.8 79.59-24 87.84-24Q92.69-24 95.29-21.6 97.89-19.2 97.89-14.7L97.89-14.7 97.89 0 86.74 0Q82.49 0 79.99-1.9 77.49-3.8 77.49-7.45 77.49-11.1 80.14-13 82.79-14.9 86.79-14.9L86.79-14.9Q89.04-14.9 91.59-14.1Z" opacity="1" transform="matrix(1,0,0,1,0,0)" fill="#1ebbd7" class="wordmark-text-0" data-fill-palette-color="primary" id="text-0"></path></svg></g></svg></g></svg></g></svg></g></svg></g></svg></g></svg></g><path d="M173.865 71.115L173.865 18.339 384.386 18.339 384.386 228.861 173.865 228.861 173.865 176.085 182.249 176.085 182.249 220.477 376.002 220.477 376.002 26.723 182.249 26.723 182.249 71.115Z" fill="#1ebbd7" stroke="transparent" data-fill-palette-color="tertiary"></path></svg></g><defs></defs></svg><rect width="395.52" height="247.2" fill="none" stroke="none" visibility="hidden"></rect></g></svg></g></svg>